<mxfile host="app.diagrams.net" agent="Mozilla/5.0 (X11; Linux x86_64; rv:143.0) Gecko/20100101 Firefox/143.0" version="28.2.7">
  <diagram name="Page-1" id="2F4LS6Kji2iFavhfCqnj">
    <mxGraphModel dx="3033" dy="766" grid="1" gridSize="10" guides="1" tooltips="1" connect="1" arrows="1" fold="1" page="1" pageScale="1" pageWidth="850" pageHeight="1100" math="0" shadow="0">
      <root>
        <mxCell id="0" />
        <mxCell id="1" parent="0" />
        <mxCell id="Zm7JUVDHdO5eOqaYXh6i-1" value="WashPlanningForm" style="swimlane;fontStyle=1;align=center;verticalAlign=top;childLayout=stackLayout;horizontal=1;startSize=26;horizontalStack=0;resizeParent=1;resizeParentMax=0;resizeLast=0;collapsible=1;marginBottom=0;whiteSpace=wrap;html=1;" parent="1" vertex="1">
          <mxGeometry x="357.5" y="330" width="140" height="124" as="geometry" />
        </mxCell>
        <mxCell id="Zm7JUVDHdO5eOqaYXh6i-2" value="- parametriPiano: map" style="text;strokeColor=none;fillColor=none;align=left;verticalAlign=top;spacingLeft=4;spacingRight=4;overflow=hidden;rotatable=0;points=[[0,0.5],[1,0.5]];portConstraint=eastwest;whiteSpace=wrap;html=1;" parent="Zm7JUVDHdO5eOqaYXh6i-1" vertex="1">
          <mxGeometry y="26" width="140" height="30" as="geometry" />
        </mxCell>
        <mxCell id="Zm7JUVDHdO5eOqaYXh6i-3" value="- dataOra: date" style="text;strokeColor=none;fillColor=none;align=left;verticalAlign=top;spacingLeft=4;spacingRight=4;overflow=hidden;rotatable=0;points=[[0,0.5],[1,0.5]];portConstraint=eastwest;whiteSpace=wrap;html=1;" parent="Zm7JUVDHdO5eOqaYXh6i-1" vertex="1">
          <mxGeometry y="56" width="140" height="30" as="geometry" />
        </mxCell>
        <mxCell id="Zm7JUVDHdO5eOqaYXh6i-4" value="" style="line;strokeWidth=1;fillColor=none;align=left;verticalAlign=middle;spacingTop=-1;spacingLeft=3;spacingRight=3;rotatable=0;labelPosition=right;points=[];portConstraint=eastwest;strokeColor=inherit;" parent="Zm7JUVDHdO5eOqaYXh6i-1" vertex="1">
          <mxGeometry y="86" width="140" height="8" as="geometry" />
        </mxCell>
        <mxCell id="Zm7JUVDHdO5eOqaYXh6i-5" value="- submit()" style="text;strokeColor=none;fillColor=none;align=left;verticalAlign=top;spacingLeft=4;spacingRight=4;overflow=hidden;rotatable=0;points=[[0,0.5],[1,0.5]];portConstraint=eastwest;whiteSpace=wrap;html=1;" parent="Zm7JUVDHdO5eOqaYXh6i-1" vertex="1">
          <mxGeometry y="94" width="140" height="30" as="geometry" />
        </mxCell>
        <mxCell id="Zm7JUVDHdO5eOqaYXh6i-6" value="WashPlanningController" style="swimlane;fontStyle=1;align=center;verticalAlign=top;childLayout=stackLayout;horizontal=1;startSize=26;horizontalStack=0;resizeParent=1;resizeParentMax=0;resizeLast=0;collapsible=1;marginBottom=0;whiteSpace=wrap;html=1;" parent="1" vertex="1">
          <mxGeometry x="302.5" y="610" width="250" height="90" as="geometry" />
        </mxCell>
        <mxCell id="Zm7JUVDHdO5eOqaYXh6i-7" value="..." style="text;strokeColor=none;fillColor=none;align=left;verticalAlign=top;spacingLeft=4;spacingRight=4;overflow=hidden;rotatable=0;points=[[0,0.5],[1,0.5]];portConstraint=eastwest;whiteSpace=wrap;html=1;" parent="Zm7JUVDHdO5eOqaYXh6i-6" vertex="1">
          <mxGeometry y="26" width="250" height="26" as="geometry" />
        </mxCell>
        <mxCell id="Zm7JUVDHdO5eOqaYXh6i-8" value="" style="line;strokeWidth=1;fillColor=none;align=left;verticalAlign=middle;spacingTop=-1;spacingLeft=3;spacingRight=3;rotatable=0;labelPosition=right;points=[];portConstraint=eastwest;strokeColor=inherit;" parent="Zm7JUVDHdO5eOqaYXh6i-6" vertex="1">
          <mxGeometry y="52" width="250" height="8" as="geometry" />
        </mxCell>
        <mxCell id="Zm7JUVDHdO5eOqaYXh6i-9" value="+ onPianificaLavaggio(parametriPiano, data)" style="text;strokeColor=none;fillColor=none;align=left;verticalAlign=top;spacingLeft=4;spacingRight=4;overflow=hidden;rotatable=0;points=[[0,0.5],[1,0.5]];portConstraint=eastwest;whiteSpace=wrap;html=1;" parent="Zm7JUVDHdO5eOqaYXh6i-6" vertex="1">
          <mxGeometry y="60" width="250" height="30" as="geometry" />
        </mxCell>
        <mxCell id="Zm7JUVDHdO5eOqaYXh6i-10" value="WashStartForm" style="swimlane;fontStyle=1;align=center;verticalAlign=top;childLayout=stackLayout;horizontal=1;startSize=26;horizontalStack=0;resizeParent=1;resizeParentMax=0;resizeLast=0;collapsible=1;marginBottom=0;whiteSpace=wrap;html=1;" parent="1" vertex="1">
          <mxGeometry x="552.5" y="330" width="140" height="124" as="geometry" />
        </mxCell>
        <mxCell id="Zm7JUVDHdO5eOqaYXh6i-11" value="- parametriPiano: map" style="text;strokeColor=none;fillColor=none;align=left;verticalAlign=top;spacingLeft=4;spacingRight=4;overflow=hidden;rotatable=0;points=[[0,0.5],[1,0.5]];portConstraint=eastwest;whiteSpace=wrap;html=1;" parent="Zm7JUVDHdO5eOqaYXh6i-10" vertex="1">
          <mxGeometry y="26" width="140" height="30" as="geometry" />
        </mxCell>
        <mxCell id="Zm7JUVDHdO5eOqaYXh6i-12" value="- dataOra=nowDate" style="text;strokeColor=none;fillColor=none;align=left;verticalAlign=top;spacingLeft=4;spacingRight=4;overflow=hidden;rotatable=0;points=[[0,0.5],[1,0.5]];portConstraint=eastwest;whiteSpace=wrap;html=1;" parent="Zm7JUVDHdO5eOqaYXh6i-10" vertex="1">
          <mxGeometry y="56" width="140" height="30" as="geometry" />
        </mxCell>
        <mxCell id="Zm7JUVDHdO5eOqaYXh6i-13" value="" style="line;strokeWidth=1;fillColor=none;align=left;verticalAlign=middle;spacingTop=-1;spacingLeft=3;spacingRight=3;rotatable=0;labelPosition=right;points=[];portConstraint=eastwest;strokeColor=inherit;" parent="Zm7JUVDHdO5eOqaYXh6i-10" vertex="1">
          <mxGeometry y="86" width="140" height="8" as="geometry" />
        </mxCell>
        <mxCell id="Zm7JUVDHdO5eOqaYXh6i-14" value="- submit()" style="text;strokeColor=none;fillColor=none;align=left;verticalAlign=top;spacingLeft=4;spacingRight=4;overflow=hidden;rotatable=0;points=[[0,0.5],[1,0.5]];portConstraint=eastwest;whiteSpace=wrap;html=1;" parent="Zm7JUVDHdO5eOqaYXh6i-10" vertex="1">
          <mxGeometry y="94" width="140" height="30" as="geometry" />
        </mxCell>
        <mxCell id="Zm7JUVDHdO5eOqaYXh6i-15" value="WashControlController" style="swimlane;fontStyle=1;align=center;verticalAlign=top;childLayout=stackLayout;horizontal=1;startSize=26;horizontalStack=0;resizeParent=1;resizeParentMax=0;resizeLast=0;collapsible=1;marginBottom=0;whiteSpace=wrap;html=1;" parent="1" vertex="1">
          <mxGeometry x="40" y="520" width="160" height="180" as="geometry" />
        </mxCell>
        <mxCell id="Zm7JUVDHdO5eOqaYXh6i-16" value="..." style="text;strokeColor=none;fillColor=none;align=left;verticalAlign=top;spacingLeft=4;spacingRight=4;overflow=hidden;rotatable=0;points=[[0,0.5],[1,0.5]];portConstraint=eastwest;whiteSpace=wrap;html=1;" parent="Zm7JUVDHdO5eOqaYXh6i-15" vertex="1">
          <mxGeometry y="26" width="160" height="26" as="geometry" />
        </mxCell>
        <mxCell id="Zm7JUVDHdO5eOqaYXh6i-17" value="" style="line;strokeWidth=1;fillColor=none;align=left;verticalAlign=middle;spacingTop=-1;spacingLeft=3;spacingRight=3;rotatable=0;labelPosition=right;points=[];portConstraint=eastwest;strokeColor=inherit;" parent="Zm7JUVDHdO5eOqaYXh6i-15" vertex="1">
          <mxGeometry y="52" width="160" height="8" as="geometry" />
        </mxCell>
        <mxCell id="Zm7JUVDHdO5eOqaYXh6i-18" value="+ onPausaLavvaggio()" style="text;strokeColor=none;fillColor=none;align=left;verticalAlign=top;spacingLeft=4;spacingRight=4;overflow=hidden;rotatable=0;points=[[0,0.5],[1,0.5]];portConstraint=eastwest;whiteSpace=wrap;html=1;" parent="Zm7JUVDHdO5eOqaYXh6i-15" vertex="1">
          <mxGeometry y="60" width="160" height="30" as="geometry" />
        </mxCell>
        <mxCell id="Zm7JUVDHdO5eOqaYXh6i-19" value="+ onRiprendiLavvaggio()" style="text;strokeColor=none;fillColor=none;align=left;verticalAlign=top;spacingLeft=4;spacingRight=4;overflow=hidden;rotatable=0;points=[[0,0.5],[1,0.5]];portConstraint=eastwest;whiteSpace=wrap;html=1;" parent="Zm7JUVDHdO5eOqaYXh6i-15" vertex="1">
          <mxGeometry y="90" width="160" height="30" as="geometry" />
        </mxCell>
        <mxCell id="Zm7JUVDHdO5eOqaYXh6i-20" value="+ onAnnullaLavvaggio()" style="text;strokeColor=none;fillColor=none;align=left;verticalAlign=top;spacingLeft=4;spacingRight=4;overflow=hidden;rotatable=0;points=[[0,0.5],[1,0.5]];portConstraint=eastwest;whiteSpace=wrap;html=1;" parent="Zm7JUVDHdO5eOqaYXh6i-15" vertex="1">
          <mxGeometry y="120" width="160" height="30" as="geometry" />
        </mxCell>
        <mxCell id="Zm7JUVDHdO5eOqaYXh6i-21" value="+ onGetState()" style="text;strokeColor=none;fillColor=none;align=left;verticalAlign=top;spacingLeft=4;spacingRight=4;overflow=hidden;rotatable=0;points=[[0,0.5],[1,0.5]];portConstraint=eastwest;whiteSpace=wrap;html=1;" parent="Zm7JUVDHdO5eOqaYXh6i-15" vertex="1">
          <mxGeometry y="150" width="160" height="30" as="geometry" />
        </mxCell>
        <mxCell id="Zm7JUVDHdO5eOqaYXh6i-22" value="WashControlMenu" style="swimlane;fontStyle=1;align=center;verticalAlign=top;childLayout=stackLayout;horizontal=1;startSize=26;horizontalStack=0;resizeParent=1;resizeParentMax=0;resizeLast=0;collapsible=1;marginBottom=0;whiteSpace=wrap;html=1;" parent="1" vertex="1">
          <mxGeometry x="-70" y="250" width="160" height="220" as="geometry" />
        </mxCell>
        <mxCell id="Zm7JUVDHdO5eOqaYXh6i-23" value="..." style="text;strokeColor=none;fillColor=none;align=left;verticalAlign=top;spacingLeft=4;spacingRight=4;overflow=hidden;rotatable=0;points=[[0,0.5],[1,0.5]];portConstraint=eastwest;whiteSpace=wrap;html=1;" parent="Zm7JUVDHdO5eOqaYXh6i-22" vertex="1">
          <mxGeometry y="26" width="160" height="30" as="geometry" />
        </mxCell>
        <mxCell id="Zm7JUVDHdO5eOqaYXh6i-24" value="" style="line;strokeWidth=1;fillColor=none;align=left;verticalAlign=middle;spacingTop=-1;spacingLeft=3;spacingRight=3;rotatable=0;labelPosition=right;points=[];portConstraint=eastwest;strokeColor=inherit;" parent="Zm7JUVDHdO5eOqaYXh6i-22" vertex="1">
          <mxGeometry y="56" width="160" height="8" as="geometry" />
        </mxCell>
        <mxCell id="Zm7JUVDHdO5eOqaYXh6i-25" value="- buttonRendering()" style="text;strokeColor=none;fillColor=none;align=left;verticalAlign=top;spacingLeft=4;spacingRight=4;overflow=hidden;rotatable=0;points=[[0,0.5],[1,0.5]];portConstraint=eastwest;whiteSpace=wrap;html=1;" parent="Zm7JUVDHdO5eOqaYXh6i-22" vertex="1">
          <mxGeometry y="64" width="160" height="30" as="geometry" />
        </mxCell>
        <mxCell id="Zm7JUVDHdO5eOqaYXh6i-26" value="- stateRendering()" style="text;strokeColor=none;fillColor=none;align=left;verticalAlign=top;spacingLeft=4;spacingRight=4;overflow=hidden;rotatable=0;points=[[0,0.5],[1,0.5]];portConstraint=eastwest;whiteSpace=wrap;html=1;" parent="Zm7JUVDHdO5eOqaYXh6i-22" vertex="1">
          <mxGeometry y="94" width="160" height="36" as="geometry" />
        </mxCell>
        <mxCell id="Zm7JUVDHdO5eOqaYXh6i-27" value="- inviaComandoPausa()" style="text;strokeColor=none;fillColor=none;align=left;verticalAlign=top;spacingLeft=4;spacingRight=4;overflow=hidden;rotatable=0;points=[[0,0.5],[1,0.5]];portConstraint=eastwest;whiteSpace=wrap;html=1;" parent="Zm7JUVDHdO5eOqaYXh6i-22" vertex="1">
          <mxGeometry y="130" width="160" height="30" as="geometry" />
        </mxCell>
        <mxCell id="Zm7JUVDHdO5eOqaYXh6i-28" value="- inviaComandoRiprendi()" style="text;strokeColor=none;fillColor=none;align=left;verticalAlign=top;spacingLeft=4;spacingRight=4;overflow=hidden;rotatable=0;points=[[0,0.5],[1,0.5]];portConstraint=eastwest;whiteSpace=wrap;html=1;" parent="Zm7JUVDHdO5eOqaYXh6i-22" vertex="1">
          <mxGeometry y="160" width="160" height="30" as="geometry" />
        </mxCell>
        <mxCell id="Zm7JUVDHdO5eOqaYXh6i-29" value="- inviaComandoAnnulla()" style="text;strokeColor=none;fillColor=none;align=left;verticalAlign=top;spacingLeft=4;spacingRight=4;overflow=hidden;rotatable=0;points=[[0,0.5],[1,0.5]];portConstraint=eastwest;whiteSpace=wrap;html=1;" parent="Zm7JUVDHdO5eOqaYXh6i-22" vertex="1">
          <mxGeometry y="190" width="160" height="30" as="geometry" />
        </mxCell>
        <mxCell id="Zm7JUVDHdO5eOqaYXh6i-30" value="" style="endArrow=none;dashed=1;html=1;dashPattern=1 3;strokeWidth=2;rounded=0;fontSize=14;" parent="1" edge="1">
          <mxGeometry width="50" height="50" relative="1" as="geometry">
            <mxPoint x="-820" y="750" as="sourcePoint" />
            <mxPoint x="1370" y="751" as="targetPoint" />
          </mxGeometry>
        </mxCell>
        <mxCell id="Zm7JUVDHdO5eOqaYXh6i-31" value="&lt;font style=&quot;font-size: 13px;&quot;&gt;Application Layer&lt;/font&gt;" style="edgeLabel;html=1;align=center;verticalAlign=middle;resizable=0;points=[];" parent="Zm7JUVDHdO5eOqaYXh6i-30" vertex="1" connectable="0">
          <mxGeometry x="0.892" y="4" relative="1" as="geometry">
            <mxPoint y="13" as="offset" />
          </mxGeometry>
        </mxCell>
        <mxCell id="Zm7JUVDHdO5eOqaYXh6i-33" value="WashPlanningService" style="swimlane;fontStyle=1;align=center;verticalAlign=top;childLayout=stackLayout;horizontal=1;startSize=26;horizontalStack=0;resizeParent=1;resizeParentMax=0;resizeLast=0;collapsible=1;marginBottom=0;whiteSpace=wrap;html=1;" parent="1" vertex="1">
          <mxGeometry x="297.5" y="850" width="240" height="112" as="geometry" />
        </mxCell>
        <mxCell id="Zm7JUVDHdO5eOqaYXh6i-34" value="..." style="text;strokeColor=none;fillColor=none;align=left;verticalAlign=top;spacingLeft=4;spacingRight=4;overflow=hidden;rotatable=0;points=[[0,0.5],[1,0.5]];portConstraint=eastwest;whiteSpace=wrap;html=1;" parent="Zm7JUVDHdO5eOqaYXh6i-33" vertex="1">
          <mxGeometry y="26" width="240" height="26" as="geometry" />
        </mxCell>
        <mxCell id="Zm7JUVDHdO5eOqaYXh6i-35" value="" style="line;strokeWidth=1;fillColor=none;align=left;verticalAlign=middle;spacingTop=-1;spacingLeft=3;spacingRight=3;rotatable=0;labelPosition=right;points=[];portConstraint=eastwest;strokeColor=inherit;" parent="Zm7JUVDHdO5eOqaYXh6i-33" vertex="1">
          <mxGeometry y="52" width="240" height="8" as="geometry" />
        </mxCell>
        <mxCell id="Zm7JUVDHdO5eOqaYXh6i-36" value="- validaParametri(parametriPiano)" style="text;strokeColor=none;fillColor=none;align=left;verticalAlign=top;spacingLeft=4;spacingRight=4;overflow=hidden;rotatable=0;points=[[0,0.5],[1,0.5]];portConstraint=eastwest;whiteSpace=wrap;html=1;" parent="Zm7JUVDHdO5eOqaYXh6i-33" vertex="1">
          <mxGeometry y="60" width="240" height="26" as="geometry" />
        </mxCell>
        <mxCell id="Zm7JUVDHdO5eOqaYXh6i-37" value="+ pianificaLavaggio(parametriPiano, data)" style="text;strokeColor=none;fillColor=none;align=left;verticalAlign=top;spacingLeft=4;spacingRight=4;overflow=hidden;rotatable=0;points=[[0,0.5],[1,0.5]];portConstraint=eastwest;whiteSpace=wrap;html=1;" parent="Zm7JUVDHdO5eOqaYXh6i-33" vertex="1">
          <mxGeometry y="86" width="240" height="26" as="geometry" />
        </mxCell>
        <mxCell id="Zm7JUVDHdO5eOqaYXh6i-39" value="Scheduler" style="swimlane;fontStyle=1;align=center;verticalAlign=top;childLayout=stackLayout;horizontal=1;startSize=26;horizontalStack=0;resizeParent=1;resizeParentMax=0;resizeLast=0;collapsible=1;marginBottom=0;whiteSpace=wrap;html=1;" parent="1" vertex="1">
          <mxGeometry x="310" y="1110" width="210" height="138" as="geometry" />
        </mxCell>
        <mxCell id="Zm7JUVDHdO5eOqaYXh6i-40" value="" style="line;strokeWidth=1;fillColor=none;align=left;verticalAlign=middle;spacingTop=-1;spacingLeft=3;spacingRight=3;rotatable=0;labelPosition=right;points=[];portConstraint=eastwest;strokeColor=inherit;" parent="Zm7JUVDHdO5eOqaYXh6i-39" vertex="1">
          <mxGeometry y="26" width="210" height="8" as="geometry" />
        </mxCell>
        <mxCell id="Zm7JUVDHdO5eOqaYXh6i-41" value="- validaSchedule( schedule)" style="text;strokeColor=none;fillColor=none;align=left;verticalAlign=top;spacingLeft=4;spacingRight=4;overflow=hidden;rotatable=0;points=[[0,0.5],[1,0.5]];portConstraint=eastwest;whiteSpace=wrap;html=1;" parent="Zm7JUVDHdO5eOqaYXh6i-39" vertex="1">
          <mxGeometry y="34" width="210" height="26" as="geometry" />
        </mxCell>
        <mxCell id="Zm7JUVDHdO5eOqaYXh6i-42" value="+ aggiungiSchedule(schedule)" style="text;strokeColor=none;fillColor=none;align=left;verticalAlign=top;spacingLeft=4;spacingRight=4;overflow=hidden;rotatable=0;points=[[0,0.5],[1,0.5]];portConstraint=eastwest;whiteSpace=wrap;html=1;" parent="Zm7JUVDHdO5eOqaYXh6i-39" vertex="1">
          <mxGeometry y="60" width="210" height="26" as="geometry" />
        </mxCell>
        <mxCell id="Zm7JUVDHdO5eOqaYXh6i-43" value="- avviaCiclo(PianoLavaggio)" style="text;strokeColor=none;fillColor=none;align=left;verticalAlign=top;spacingLeft=4;spacingRight=4;overflow=hidden;rotatable=0;points=[[0,0.5],[1,0.5]];portConstraint=eastwest;whiteSpace=wrap;html=1;" parent="Zm7JUVDHdO5eOqaYXh6i-39" vertex="1">
          <mxGeometry y="86" width="210" height="26" as="geometry" />
        </mxCell>
        <mxCell id="Zm7JUVDHdO5eOqaYXh6i-44" value="+ onTick(Date)" style="text;strokeColor=none;fillColor=none;align=left;verticalAlign=top;spacingLeft=4;spacingRight=4;overflow=hidden;rotatable=0;points=[[0,0.5],[1,0.5]];portConstraint=eastwest;whiteSpace=wrap;html=1;" parent="Zm7JUVDHdO5eOqaYXh6i-39" vertex="1">
          <mxGeometry y="112" width="210" height="26" as="geometry" />
        </mxCell>
        <mxCell id="Zm7JUVDHdO5eOqaYXh6i-45" value="Schedule" style="swimlane;fontStyle=1;align=center;verticalAlign=top;childLayout=stackLayout;horizontal=1;startSize=26;horizontalStack=0;resizeParent=1;resizeParentMax=0;resizeLast=0;collapsible=1;marginBottom=0;whiteSpace=wrap;html=1;" parent="1" vertex="1">
          <mxGeometry x="700" y="1092" width="160" height="172" as="geometry" />
        </mxCell>
        <mxCell id="Zm7JUVDHdO5eOqaYXh6i-46" value="&lt;div&gt;- piano: PianoLavaggio&lt;/div&gt;&lt;div&gt;&lt;br&gt;&lt;/div&gt;" style="text;strokeColor=none;fillColor=none;align=left;verticalAlign=top;spacingLeft=4;spacingRight=4;overflow=hidden;rotatable=0;points=[[0,0.5],[1,0.5]];portConstraint=eastwest;whiteSpace=wrap;html=1;" parent="Zm7JUVDHdO5eOqaYXh6i-45" vertex="1">
          <mxGeometry y="26" width="160" height="26" as="geometry" />
        </mxCell>
        <mxCell id="Zm7JUVDHdO5eOqaYXh6i-47" value="- stato: string" style="text;strokeColor=none;fillColor=none;align=left;verticalAlign=top;spacingLeft=4;spacingRight=4;overflow=hidden;rotatable=0;points=[[0,0.5],[1,0.5]];portConstraint=eastwest;whiteSpace=wrap;html=1;" parent="Zm7JUVDHdO5eOqaYXh6i-45" vertex="1">
          <mxGeometry y="52" width="160" height="26" as="geometry" />
        </mxCell>
        <mxCell id="Zm7JUVDHdO5eOqaYXh6i-48" value="- dataOra: Date" style="text;strokeColor=none;fillColor=none;align=left;verticalAlign=top;spacingLeft=4;spacingRight=4;overflow=hidden;rotatable=0;points=[[0,0.5],[1,0.5]];portConstraint=eastwest;whiteSpace=wrap;html=1;" parent="Zm7JUVDHdO5eOqaYXh6i-45" vertex="1">
          <mxGeometry y="78" width="160" height="26" as="geometry" />
        </mxCell>
        <mxCell id="Zm7JUVDHdO5eOqaYXh6i-49" value="" style="line;strokeWidth=1;fillColor=none;align=left;verticalAlign=middle;spacingTop=-1;spacingLeft=3;spacingRight=3;rotatable=0;labelPosition=right;points=[];portConstraint=eastwest;strokeColor=inherit;" parent="Zm7JUVDHdO5eOqaYXh6i-45" vertex="1">
          <mxGeometry y="104" width="160" height="8" as="geometry" />
        </mxCell>
        <mxCell id="Zm7JUVDHdO5eOqaYXh6i-50" value="+ aggiornaDataOra(Data)" style="text;strokeColor=none;fillColor=none;align=left;verticalAlign=top;spacingLeft=4;spacingRight=4;overflow=hidden;rotatable=0;points=[[0,0.5],[1,0.5]];portConstraint=eastwest;whiteSpace=wrap;html=1;" parent="Zm7JUVDHdO5eOqaYXh6i-45" vertex="1">
          <mxGeometry y="112" width="160" height="30" as="geometry" />
        </mxCell>
        <mxCell id="Zm7JUVDHdO5eOqaYXh6i-51" value="..." style="text;strokeColor=none;fillColor=none;align=left;verticalAlign=top;spacingLeft=4;spacingRight=4;overflow=hidden;rotatable=0;points=[[0,0.5],[1,0.5]];portConstraint=eastwest;whiteSpace=wrap;html=1;" parent="Zm7JUVDHdO5eOqaYXh6i-45" vertex="1">
          <mxGeometry y="142" width="160" height="30" as="geometry" />
        </mxCell>
        <mxCell id="Zm7JUVDHdO5eOqaYXh6i-52" value="" style="endArrow=diamondThin;endFill=0;endSize=24;html=1;rounded=0;exitX=0;exitY=0.5;exitDx=0;exitDy=0;entryX=1;entryY=0.5;entryDx=0;entryDy=0;" parent="1" source="Zm7JUVDHdO5eOqaYXh6i-48" target="Zm7JUVDHdO5eOqaYXh6i-42" edge="1">
          <mxGeometry width="160" relative="1" as="geometry">
            <mxPoint x="211" y="1151" as="sourcePoint" />
            <mxPoint x="210" y="1080" as="targetPoint" />
          </mxGeometry>
        </mxCell>
        <mxCell id="Zm7JUVDHdO5eOqaYXh6i-53" value="&lt;font style=&quot;font-size: 18px;&quot;&gt;*&lt;/font&gt;" style="edgeLabel;html=1;align=center;verticalAlign=middle;resizable=0;points=[];fontSize=14;" parent="Zm7JUVDHdO5eOqaYXh6i-52" vertex="1" connectable="0">
          <mxGeometry x="-0.7116" y="-1" relative="1" as="geometry">
            <mxPoint x="5" y="-13" as="offset" />
          </mxGeometry>
        </mxCell>
        <mxCell id="Zm7JUVDHdO5eOqaYXh6i-54" value="PianoLavaggio" style="swimlane;fontStyle=1;align=center;verticalAlign=top;childLayout=stackLayout;horizontal=1;startSize=26;horizontalStack=0;resizeParent=1;resizeParentMax=0;resizeLast=0;collapsible=1;marginBottom=0;whiteSpace=wrap;html=1;" parent="1" vertex="1">
          <mxGeometry x="700" y="822" width="150" height="198" as="geometry" />
        </mxCell>
        <mxCell id="Zm7JUVDHdO5eOqaYXh6i-55" value="&lt;div&gt;- temperatura: int&lt;/div&gt;&lt;div&gt;&lt;br&gt;&lt;/div&gt;" style="text;strokeColor=none;fillColor=none;align=left;verticalAlign=top;spacingLeft=4;spacingRight=4;overflow=hidden;rotatable=0;points=[[0,0.5],[1,0.5]];portConstraint=eastwest;whiteSpace=wrap;html=1;" parent="Zm7JUVDHdO5eOqaYXh6i-54" vertex="1">
          <mxGeometry y="26" width="150" height="26" as="geometry" />
        </mxCell>
        <mxCell id="Zm7JUVDHdO5eOqaYXh6i-56" value="- durata: int" style="text;strokeColor=none;fillColor=none;align=left;verticalAlign=top;spacingLeft=4;spacingRight=4;overflow=hidden;rotatable=0;points=[[0,0.5],[1,0.5]];portConstraint=eastwest;whiteSpace=wrap;html=1;" parent="Zm7JUVDHdO5eOqaYXh6i-54" vertex="1">
          <mxGeometry y="52" width="150" height="26" as="geometry" />
        </mxCell>
        <mxCell id="Zm7JUVDHdO5eOqaYXh6i-57" value="- eco: bool" style="text;strokeColor=none;fillColor=none;align=left;verticalAlign=top;spacingLeft=4;spacingRight=4;overflow=hidden;rotatable=0;points=[[0,0.5],[1,0.5]];portConstraint=eastwest;whiteSpace=wrap;html=1;" parent="Zm7JUVDHdO5eOqaYXh6i-54" vertex="1">
          <mxGeometry y="78" width="150" height="26" as="geometry" />
        </mxCell>
        <mxCell id="Zm7JUVDHdO5eOqaYXh6i-58" value="- velocitaCentrifuga: int" style="text;strokeColor=none;fillColor=none;align=left;verticalAlign=top;spacingLeft=4;spacingRight=4;overflow=hidden;rotatable=0;points=[[0,0.5],[1,0.5]];portConstraint=eastwest;whiteSpace=wrap;html=1;" parent="Zm7JUVDHdO5eOqaYXh6i-54" vertex="1">
          <mxGeometry y="104" width="150" height="26" as="geometry" />
        </mxCell>
        <mxCell id="Zm7JUVDHdO5eOqaYXh6i-59" value="" style="line;strokeWidth=1;fillColor=none;align=left;verticalAlign=middle;spacingTop=-1;spacingLeft=3;spacingRight=3;rotatable=0;labelPosition=right;points=[];portConstraint=eastwest;strokeColor=inherit;" parent="Zm7JUVDHdO5eOqaYXh6i-54" vertex="1">
          <mxGeometry y="130" width="150" height="8" as="geometry" />
        </mxCell>
        <mxCell id="Zm7JUVDHdO5eOqaYXh6i-60" value="- validaParametri()" style="text;strokeColor=none;fillColor=none;align=left;verticalAlign=top;spacingLeft=4;spacingRight=4;overflow=hidden;rotatable=0;points=[[0,0.5],[1,0.5]];portConstraint=eastwest;whiteSpace=wrap;html=1;" parent="Zm7JUVDHdO5eOqaYXh6i-54" vertex="1">
          <mxGeometry y="138" width="150" height="30" as="geometry" />
        </mxCell>
        <mxCell id="Zm7JUVDHdO5eOqaYXh6i-61" value="..." style="text;strokeColor=none;fillColor=none;align=left;verticalAlign=top;spacingLeft=4;spacingRight=4;overflow=hidden;rotatable=0;points=[[0,0.5],[1,0.5]];portConstraint=eastwest;whiteSpace=wrap;html=1;" parent="Zm7JUVDHdO5eOqaYXh6i-54" vertex="1">
          <mxGeometry y="168" width="150" height="30" as="geometry" />
        </mxCell>
        <mxCell id="Zm7JUVDHdO5eOqaYXh6i-62" value="" style="endArrow=diamondThin;endFill=0;endSize=24;html=1;rounded=0;exitX=0.516;exitY=1.033;exitDx=0;exitDy=0;entryX=0.468;entryY=-0.017;entryDx=0;entryDy=0;exitPerimeter=0;entryPerimeter=0;" parent="1" source="Zm7JUVDHdO5eOqaYXh6i-61" target="Zm7JUVDHdO5eOqaYXh6i-45" edge="1">
          <mxGeometry width="160" relative="1" as="geometry">
            <mxPoint x="445" y="1093" as="sourcePoint" />
            <mxPoint x="444" y="1022" as="targetPoint" />
          </mxGeometry>
        </mxCell>
        <mxCell id="Zm7JUVDHdO5eOqaYXh6i-63" value="Use" style="endArrow=open;endSize=12;dashed=1;html=1;rounded=0;entryX=-0.004;entryY=-0.115;entryDx=0;entryDy=0;entryPerimeter=0;exitX=1.015;exitY=0.846;exitDx=0;exitDy=0;exitPerimeter=0;" parent="1" source="Zm7JUVDHdO5eOqaYXh6i-34" target="Zm7JUVDHdO5eOqaYXh6i-57" edge="1">
          <mxGeometry width="160" relative="1" as="geometry">
            <mxPoint x="590" y="980" as="sourcePoint" />
            <mxPoint x="480" y="930" as="targetPoint" />
          </mxGeometry>
        </mxCell>
        <mxCell id="Zm7JUVDHdO5eOqaYXh6i-64" value="Use" style="endArrow=open;endSize=12;dashed=1;html=1;rounded=0;entryX=0;entryY=0.5;entryDx=0;entryDy=0;exitX=1;exitY=0.5;exitDx=0;exitDy=0;" parent="1" source="Zm7JUVDHdO5eOqaYXh6i-36" target="Zm7JUVDHdO5eOqaYXh6i-46" edge="1">
          <mxGeometry width="160" relative="1" as="geometry">
            <mxPoint x="580" y="1019" as="sourcePoint" />
            <mxPoint x="692" y="960" as="targetPoint" />
          </mxGeometry>
        </mxCell>
        <mxCell id="Zm7JUVDHdO5eOqaYXh6i-66" value="WashingManager" style="swimlane;fontStyle=1;align=center;verticalAlign=top;childLayout=stackLayout;horizontal=1;startSize=26;horizontalStack=0;resizeParent=1;resizeParentMax=0;resizeLast=0;collapsible=1;marginBottom=0;whiteSpace=wrap;html=1;" parent="1" vertex="1">
          <mxGeometry x="-30" y="930" width="220" height="296" as="geometry" />
        </mxCell>
        <mxCell id="Zm7JUVDHdO5eOqaYXh6i-67" value="&lt;div&gt;- stato: StatoLavaggio&lt;/div&gt;&lt;div&gt;&lt;br&gt;&lt;/div&gt;" style="text;strokeColor=none;fillColor=none;align=left;verticalAlign=top;spacingLeft=4;spacingRight=4;overflow=hidden;rotatable=0;points=[[0,0.5],[1,0.5]];portConstraint=eastwest;whiteSpace=wrap;html=1;" parent="Zm7JUVDHdO5eOqaYXh6i-66" vertex="1">
          <mxGeometry y="26" width="220" height="26" as="geometry" />
        </mxCell>
        <mxCell id="Zm7JUVDHdO5eOqaYXh6i-68" value="- piano: PianoLavaggio" style="text;strokeColor=none;fillColor=none;align=left;verticalAlign=top;spacingLeft=4;spacingRight=4;overflow=hidden;rotatable=0;points=[[0,0.5],[1,0.5]];portConstraint=eastwest;whiteSpace=wrap;html=1;" parent="Zm7JUVDHdO5eOqaYXh6i-66" vertex="1">
          <mxGeometry y="52" width="220" height="26" as="geometry" />
        </mxCell>
        <mxCell id="Zm7JUVDHdO5eOqaYXh6i-69" value="" style="line;strokeWidth=1;fillColor=none;align=left;verticalAlign=middle;spacingTop=-1;spacingLeft=3;spacingRight=3;rotatable=0;labelPosition=right;points=[];portConstraint=eastwest;strokeColor=inherit;" parent="Zm7JUVDHdO5eOqaYXh6i-66" vertex="1">
          <mxGeometry y="78" width="220" height="8" as="geometry" />
        </mxCell>
        <mxCell id="Zm7JUVDHdO5eOqaYXh6i-70" value="+ avviaLavaggio(PianoLavaggio)" style="text;strokeColor=none;fillColor=none;align=left;verticalAlign=top;spacingLeft=4;spacingRight=4;overflow=hidden;rotatable=0;points=[[0,0.5],[1,0.5]];portConstraint=eastwest;whiteSpace=wrap;html=1;" parent="Zm7JUVDHdO5eOqaYXh6i-66" vertex="1">
          <mxGeometry y="86" width="220" height="30" as="geometry" />
        </mxCell>
        <mxCell id="Zm7JUVDHdO5eOqaYXh6i-71" value="+ pausaLavaggio()" style="text;strokeColor=none;fillColor=none;align=left;verticalAlign=top;spacingLeft=4;spacingRight=4;overflow=hidden;rotatable=0;points=[[0,0.5],[1,0.5]];portConstraint=eastwest;whiteSpace=wrap;html=1;" parent="Zm7JUVDHdO5eOqaYXh6i-66" vertex="1">
          <mxGeometry y="116" width="220" height="30" as="geometry" />
        </mxCell>
        <mxCell id="Zm7JUVDHdO5eOqaYXh6i-72" value="+ riprendiLavaggio()" style="text;strokeColor=none;fillColor=none;align=left;verticalAlign=top;spacingLeft=4;spacingRight=4;overflow=hidden;rotatable=0;points=[[0,0.5],[1,0.5]];portConstraint=eastwest;whiteSpace=wrap;html=1;" parent="Zm7JUVDHdO5eOqaYXh6i-66" vertex="1">
          <mxGeometry y="146" width="220" height="30" as="geometry" />
        </mxCell>
        <mxCell id="Zm7JUVDHdO5eOqaYXh6i-73" value="+ annullaLavaggio()" style="text;strokeColor=none;fillColor=none;align=left;verticalAlign=top;spacingLeft=4;spacingRight=4;overflow=hidden;rotatable=0;points=[[0,0.5],[1,0.5]];portConstraint=eastwest;whiteSpace=wrap;html=1;" parent="Zm7JUVDHdO5eOqaYXh6i-66" vertex="1">
          <mxGeometry y="176" width="220" height="30" as="geometry" />
        </mxCell>
        <mxCell id="Zm7JUVDHdO5eOqaYXh6i-74" value="- aggiornaStato()" style="text;strokeColor=none;fillColor=none;align=left;verticalAlign=top;spacingLeft=4;spacingRight=4;overflow=hidden;rotatable=0;points=[[0,0.5],[1,0.5]];portConstraint=eastwest;whiteSpace=wrap;html=1;" parent="Zm7JUVDHdO5eOqaYXh6i-66" vertex="1">
          <mxGeometry y="206" width="220" height="30" as="geometry" />
        </mxCell>
        <mxCell id="Zm7JUVDHdO5eOqaYXh6i-75" value="+ getState()" style="text;strokeColor=none;fillColor=none;align=left;verticalAlign=top;spacingLeft=4;spacingRight=4;overflow=hidden;rotatable=0;points=[[0,0.5],[1,0.5]];portConstraint=eastwest;whiteSpace=wrap;html=1;" parent="Zm7JUVDHdO5eOqaYXh6i-66" vertex="1">
          <mxGeometry y="236" width="220" height="30" as="geometry" />
        </mxCell>
        <mxCell id="jJ-O4zz6DTN9AIX43a0n-33" value="+ optimizeCycle(iotData: string)" style="text;strokeColor=none;fillColor=none;align=left;verticalAlign=top;spacingLeft=4;spacingRight=4;overflow=hidden;rotatable=0;points=[[0,0.5],[1,0.5]];portConstraint=eastwest;whiteSpace=wrap;html=1;" parent="Zm7JUVDHdO5eOqaYXh6i-66" vertex="1">
          <mxGeometry y="266" width="220" height="30" as="geometry" />
        </mxCell>
        <mxCell id="Zm7JUVDHdO5eOqaYXh6i-77" value="&lt;p style=&quot;margin:0px;margin-top:4px;text-align:center;&quot;&gt;&lt;i&gt;&amp;lt;&amp;lt;Interface&amp;gt;&amp;gt;&lt;/i&gt;&lt;br&gt;&lt;b&gt;LavatriceHardware&lt;/b&gt;&lt;/p&gt;&lt;p style=&quot;margin:0px;margin-left:4px;&quot;&gt;&lt;br&gt;&lt;/p&gt;&lt;hr size=&quot;1&quot; style=&quot;border-style:solid;&quot;&gt;&lt;p style=&quot;margin:0px;margin-left:4px;&quot;&gt;+ avviaMotore()&lt;/p&gt;&lt;p style=&quot;margin:0px;margin-left:4px;&quot;&gt;+ fermaMotore()&lt;/p&gt;&lt;p style=&quot;margin:0px;margin-left:4px;&quot;&gt;+ apriValvolaAcqua()&lt;/p&gt;&lt;p style=&quot;margin:0px;margin-left:4px;&quot;&gt;+ chiudiValvolaAcqua()&lt;/p&gt;&lt;p style=&quot;margin:0px;margin-left:4px;&quot;&gt;+ attivaCentrifuga()&lt;/p&gt;&lt;p style=&quot;margin:0px;margin-left:4px;&quot;&gt;+ arrestaCentrifuga()&lt;/p&gt;&lt;p style=&quot;margin:0px;margin-left:4px;&quot;&gt;&amp;nbsp; &amp;nbsp; // ...altri metodi..&lt;/p&gt;&lt;p style=&quot;margin:0px;margin-left:4px;&quot;&gt;&lt;br&gt;&lt;/p&gt;" style="verticalAlign=top;align=left;overflow=fill;html=1;whiteSpace=wrap;" parent="1" vertex="1">
          <mxGeometry x="-20" y="1480" width="182.5" height="180" as="geometry" />
        </mxCell>
        <mxCell id="Zm7JUVDHdO5eOqaYXh6i-78" value="" style="endArrow=none;dashed=1;html=1;dashPattern=1 3;strokeWidth=2;rounded=0;fontSize=14;" parent="1" edge="1">
          <mxGeometry width="50" height="50" relative="1" as="geometry">
            <mxPoint x="-860" y="1430" as="sourcePoint" />
            <mxPoint x="1390" y="1430" as="targetPoint" />
          </mxGeometry>
        </mxCell>
        <mxCell id="Zm7JUVDHdO5eOqaYXh6i-79" value="&lt;font style=&quot;font-size: 13px;&quot;&gt;Hardware Abstraction Layer&lt;/font&gt;" style="edgeLabel;html=1;align=center;verticalAlign=middle;resizable=0;points=[];" parent="Zm7JUVDHdO5eOqaYXh6i-78" vertex="1" connectable="0">
          <mxGeometry x="0.892" y="4" relative="1" as="geometry">
            <mxPoint x="-14" y="13" as="offset" />
          </mxGeometry>
        </mxCell>
        <mxCell id="Zm7JUVDHdO5eOqaYXh6i-80" value="" style="endArrow=open;endFill=1;endSize=12;html=1;rounded=0;exitX=0.441;exitY=1;exitDx=0;exitDy=0;exitPerimeter=0;entryX=0.5;entryY=0;entryDx=0;entryDy=0;" parent="1" source="jJ-O4zz6DTN9AIX43a0n-33" target="Zm7JUVDHdO5eOqaYXh6i-77" edge="1">
          <mxGeometry width="160" relative="1" as="geometry">
            <mxPoint x="280" y="1180" as="sourcePoint" />
            <mxPoint x="450" y="1170" as="targetPoint" />
          </mxGeometry>
        </mxCell>
        <mxCell id="Zm7JUVDHdO5eOqaYXh6i-81" value="" style="endArrow=open;endFill=1;endSize=12;html=1;rounded=0;entryX=1.005;entryY=0.027;entryDx=0;entryDy=0;exitX=0;exitY=0.08;exitDx=0;exitDy=0;exitPerimeter=0;entryPerimeter=0;edgeStyle=orthogonalEdgeStyle;" parent="1" source="Zm7JUVDHdO5eOqaYXh6i-39" target="Zm7JUVDHdO5eOqaYXh6i-66" edge="1">
          <mxGeometry width="160" relative="1" as="geometry">
            <mxPoint x="300" y="1190" as="sourcePoint" />
            <mxPoint x="61" y="1474" as="targetPoint" />
          </mxGeometry>
        </mxCell>
        <mxCell id="Zm7JUVDHdO5eOqaYXh6i-82" value="" style="endArrow=open;endFill=1;endSize=12;html=1;rounded=0;entryX=0.5;entryY=0;entryDx=0;entryDy=0;exitX=0.481;exitY=0.885;exitDx=0;exitDy=0;exitPerimeter=0;" parent="1" source="Zm7JUVDHdO5eOqaYXh6i-37" target="Zm7JUVDHdO5eOqaYXh6i-39" edge="1">
          <mxGeometry width="160" relative="1" as="geometry">
            <mxPoint x="374" y="1194" as="sourcePoint" />
            <mxPoint x="240" y="1180" as="targetPoint" />
          </mxGeometry>
        </mxCell>
        <mxCell id="Zm7JUVDHdO5eOqaYXh6i-83" value="" style="endArrow=open;endFill=1;endSize=12;html=1;rounded=0;entryX=0.535;entryY=-0.009;entryDx=0;entryDy=0;entryPerimeter=0;exitX=0.494;exitY=1;exitDx=0;exitDy=0;exitPerimeter=0;" parent="1" source="Zm7JUVDHdO5eOqaYXh6i-9" target="Zm7JUVDHdO5eOqaYXh6i-33" edge="1">
          <mxGeometry width="160" relative="1" as="geometry">
            <mxPoint x="524" y="794" as="sourcePoint" />
            <mxPoint x="426.92999999999984" y="789.01" as="targetPoint" />
          </mxGeometry>
        </mxCell>
        <mxCell id="Zm7JUVDHdO5eOqaYXh6i-84" value="" style="endArrow=open;endFill=1;endSize=12;html=1;rounded=0;entryX=0.314;entryY=0.033;entryDx=0;entryDy=0;entryPerimeter=0;exitX=0.414;exitY=1.133;exitDx=0;exitDy=0;exitPerimeter=0;" parent="1" source="Zm7JUVDHdO5eOqaYXh6i-5" target="Zm7JUVDHdO5eOqaYXh6i-6" edge="1">
          <mxGeometry width="160" relative="1" as="geometry">
            <mxPoint x="534" y="504" as="sourcePoint" />
            <mxPoint x="400" y="490" as="targetPoint" />
          </mxGeometry>
        </mxCell>
        <mxCell id="Zm7JUVDHdO5eOqaYXh6i-85" value="" style="endArrow=open;endFill=1;endSize=12;html=1;rounded=0;entryX=0.65;entryY=0.011;entryDx=0;entryDy=0;entryPerimeter=0;exitX=0.507;exitY=1.033;exitDx=0;exitDy=0;exitPerimeter=0;" parent="1" source="Zm7JUVDHdO5eOqaYXh6i-14" target="Zm7JUVDHdO5eOqaYXh6i-6" edge="1">
          <mxGeometry width="160" relative="1" as="geometry">
            <mxPoint x="684" y="474" as="sourcePoint" />
            <mxPoint x="550" y="460" as="targetPoint" />
          </mxGeometry>
        </mxCell>
        <mxCell id="Zm7JUVDHdO5eOqaYXh6i-86" value="" style="endArrow=open;endFill=1;endSize=12;html=1;rounded=0;entryX=0.5;entryY=0;entryDx=0;entryDy=0;exitX=0.8;exitY=1.067;exitDx=0;exitDy=0;exitPerimeter=0;" parent="1" source="Zm7JUVDHdO5eOqaYXh6i-29" target="Zm7JUVDHdO5eOqaYXh6i-15" edge="1">
          <mxGeometry width="160" relative="1" as="geometry">
            <mxPoint x="244" y="474" as="sourcePoint" />
            <mxPoint x="110" y="460" as="targetPoint" />
          </mxGeometry>
        </mxCell>
        <mxCell id="Zm7JUVDHdO5eOqaYXh6i-87" value="" style="endArrow=open;endFill=1;endSize=12;html=1;rounded=0;entryX=0.5;entryY=0;entryDx=0;entryDy=0;exitX=0.506;exitY=1.033;exitDx=0;exitDy=0;exitPerimeter=0;" parent="1" source="Zm7JUVDHdO5eOqaYXh6i-21" target="Zm7JUVDHdO5eOqaYXh6i-66" edge="1">
          <mxGeometry width="160" relative="1" as="geometry">
            <mxPoint x="430" y="720" as="sourcePoint" />
            <mxPoint x="45" y="800" as="targetPoint" />
          </mxGeometry>
        </mxCell>
        <mxCell id="Zm7JUVDHdO5eOqaYXh6i-88" value="&lt;p style=&quot;margin:0px;margin-top:4px;text-align:center;&quot;&gt;&lt;i&gt;&amp;lt;&amp;lt;Interface&amp;gt;&amp;gt;&lt;/i&gt;&lt;br&gt;&lt;b&gt;Clock&lt;/b&gt;&lt;/p&gt;&lt;p style=&quot;margin:0px;margin-left:4px;&quot;&gt;&lt;br&gt;&lt;/p&gt;&lt;hr size=&quot;1&quot; style=&quot;border-style:solid;&quot;&gt;&lt;p style=&quot;margin:0px;margin-left:4px;&quot;&gt;- notifyOnTick()&lt;/p&gt;&lt;p style=&quot;margin:0px;margin-left:4px;&quot;&gt;&lt;br&gt;&lt;/p&gt;" style="verticalAlign=top;align=left;overflow=fill;html=1;whiteSpace=wrap;" parent="1" vertex="1">
          <mxGeometry x="324.25" y="1508" width="182.5" height="92" as="geometry" />
        </mxCell>
        <mxCell id="Zm7JUVDHdO5eOqaYXh6i-92" value="&lt;p style=&quot;margin:0px;margin-top:4px;text-align:center;&quot;&gt;&lt;i&gt;&amp;lt;&amp;lt;Interface&amp;gt;&amp;gt;&lt;/i&gt;&lt;br&gt;&lt;b&gt;VoiceInputDevice&lt;/b&gt;&lt;/p&gt;&lt;p style=&quot;margin:0px;margin-left:4px;&quot;&gt;&lt;br&gt;&lt;/p&gt;&lt;hr size=&quot;1&quot; style=&quot;border-style:solid;&quot;&gt;&lt;p style=&quot;margin:0px;margin-left:4px;&quot;&gt;-&amp;nbsp;notifyObserverSignalReceived()&lt;/p&gt;&lt;p style=&quot;margin:0px;margin-left:4px;&quot;&gt;&lt;br&gt;&lt;/p&gt;" style="verticalAlign=top;align=left;overflow=fill;html=1;whiteSpace=wrap;" parent="1" vertex="1">
          <mxGeometry x="974.38" y="1508" width="191.25" height="102" as="geometry" />
        </mxCell>
        <mxCell id="Zm7JUVDHdO5eOqaYXh6i-95" value="VoiceCommandInterpreter" style="swimlane;fontStyle=1;align=center;verticalAlign=top;childLayout=stackLayout;horizontal=1;startSize=26;horizontalStack=0;resizeParent=1;resizeParentMax=0;resizeLast=0;collapsible=1;marginBottom=0;whiteSpace=wrap;html=1;" parent="1" vertex="1">
          <mxGeometry x="950" y="1050" width="240" height="86" as="geometry" />
        </mxCell>
        <mxCell id="Zm7JUVDHdO5eOqaYXh6i-96" value="" style="line;strokeWidth=1;fillColor=none;align=left;verticalAlign=middle;spacingTop=-1;spacingLeft=3;spacingRight=3;rotatable=0;labelPosition=right;points=[];portConstraint=eastwest;strokeColor=inherit;" parent="Zm7JUVDHdO5eOqaYXh6i-95" vertex="1">
          <mxGeometry y="26" width="240" height="8" as="geometry" />
        </mxCell>
        <mxCell id="Zm7JUVDHdO5eOqaYXh6i-97" value="- interpretaComandoVocale(string)" style="text;strokeColor=none;fillColor=none;align=left;verticalAlign=top;spacingLeft=4;spacingRight=4;overflow=hidden;rotatable=0;points=[[0,0.5],[1,0.5]];portConstraint=eastwest;whiteSpace=wrap;html=1;" parent="Zm7JUVDHdO5eOqaYXh6i-95" vertex="1">
          <mxGeometry y="34" width="240" height="26" as="geometry" />
        </mxCell>
        <mxCell id="Zm7JUVDHdO5eOqaYXh6i-98" value="+ onVoiceSignal(string)" style="text;strokeColor=none;fillColor=none;align=left;verticalAlign=top;spacingLeft=4;spacingRight=4;overflow=hidden;rotatable=0;points=[[0,0.5],[1,0.5]];portConstraint=eastwest;whiteSpace=wrap;html=1;" parent="Zm7JUVDHdO5eOqaYXh6i-95" vertex="1">
          <mxGeometry y="60" width="240" height="26" as="geometry" />
        </mxCell>
        <mxCell id="Zm7JUVDHdO5eOqaYXh6i-100" value="CommandDispatcher" style="swimlane;fontStyle=1;align=center;verticalAlign=top;childLayout=stackLayout;horizontal=1;startSize=26;horizontalStack=0;resizeParent=1;resizeParentMax=0;resizeLast=0;collapsible=1;marginBottom=0;whiteSpace=wrap;html=1;" parent="1" vertex="1">
          <mxGeometry x="107.5" y="160" width="190" height="60" as="geometry" />
        </mxCell>
        <mxCell id="Zm7JUVDHdO5eOqaYXh6i-101" value="" style="line;strokeWidth=1;fillColor=none;align=left;verticalAlign=middle;spacingTop=-1;spacingLeft=3;spacingRight=3;rotatable=0;labelPosition=right;points=[];portConstraint=eastwest;strokeColor=inherit;" parent="Zm7JUVDHdO5eOqaYXh6i-100" vertex="1">
          <mxGeometry y="26" width="190" height="8" as="geometry" />
        </mxCell>
        <mxCell id="Zm7JUVDHdO5eOqaYXh6i-102" value="dispatch(string)" style="text;strokeColor=none;fillColor=none;align=left;verticalAlign=top;spacingLeft=4;spacingRight=4;overflow=hidden;rotatable=0;points=[[0,0.5],[1,0.5]];portConstraint=eastwest;whiteSpace=wrap;html=1;" parent="Zm7JUVDHdO5eOqaYXh6i-100" vertex="1">
          <mxGeometry y="34" width="190" height="26" as="geometry" />
        </mxCell>
        <mxCell id="Zm7JUVDHdO5eOqaYXh6i-103" value="" style="endArrow=open;endFill=1;endSize=12;html=1;rounded=0;entryX=1;entryY=0.25;entryDx=0;entryDy=0;exitX=0.5;exitY=0;exitDx=0;exitDy=0;edgeStyle=orthogonalEdgeStyle;" parent="1" source="Zm7JUVDHdO5eOqaYXh6i-95" target="Zm7JUVDHdO5eOqaYXh6i-100" edge="1">
          <mxGeometry width="160" relative="1" as="geometry">
            <mxPoint x="698" y="530" as="sourcePoint" />
            <mxPoint x="540" y="686" as="targetPoint" />
          </mxGeometry>
        </mxCell>
        <mxCell id="Zm7JUVDHdO5eOqaYXh6i-104" value="" style="endArrow=open;endFill=1;endSize=12;html=1;rounded=0;entryX=0.544;entryY=0.028;entryDx=0;entryDy=0;entryPerimeter=0;exitX=0.371;exitY=1.154;exitDx=0;exitDy=0;exitPerimeter=0;" parent="1" source="Zm7JUVDHdO5eOqaYXh6i-102" target="Zm7JUVDHdO5eOqaYXh6i-15" edge="1">
          <mxGeometry width="160" relative="1" as="geometry">
            <mxPoint x="175.07999999999993" y="305.01199999999994" as="sourcePoint" />
            <mxPoint x="390" y="675" as="targetPoint" />
          </mxGeometry>
        </mxCell>
        <mxCell id="Zm7JUVDHdO5eOqaYXh6i-105" value="" style="endArrow=open;endFill=1;endSize=12;html=1;rounded=0;entryX=0.25;entryY=0;entryDx=0;entryDy=0;exitX=0.479;exitY=1.038;exitDx=0;exitDy=0;exitPerimeter=0;" parent="1" source="Zm7JUVDHdO5eOqaYXh6i-102" target="Zm7JUVDHdO5eOqaYXh6i-6" edge="1">
          <mxGeometry width="160" relative="1" as="geometry">
            <mxPoint x="177" y="301.996" as="sourcePoint" />
            <mxPoint x="110" y="620" as="targetPoint" />
          </mxGeometry>
        </mxCell>
        <mxCell id="Ix28sIs7fbeg7dnRSIw2-2" value="" style="endArrow=open;endFill=1;endSize=12;html=1;rounded=0;exitX=0.5;exitY=0;exitDx=0;exitDy=0;entryX=0.5;entryY=1;entryDx=0;entryDy=0;" parent="1" source="Zm7JUVDHdO5eOqaYXh6i-88" target="Zm7JUVDHdO5eOqaYXh6i-39" edge="1">
          <mxGeometry width="160" relative="1" as="geometry">
            <mxPoint x="370" y="1350" as="sourcePoint" />
            <mxPoint x="530" y="1350" as="targetPoint" />
          </mxGeometry>
        </mxCell>
        <mxCell id="Ix28sIs7fbeg7dnRSIw2-3" value="" style="endArrow=open;endFill=1;endSize=12;html=1;rounded=0;exitX=0.5;exitY=0;exitDx=0;exitDy=0;entryX=0.5;entryY=1;entryDx=0;entryDy=0;" parent="1" source="Zm7JUVDHdO5eOqaYXh6i-92" target="Zm7JUVDHdO5eOqaYXh6i-95" edge="1">
          <mxGeometry width="160" relative="1" as="geometry">
            <mxPoint x="411" y="1620" as="sourcePoint" />
            <mxPoint x="410" y="1360" as="targetPoint" />
          </mxGeometry>
        </mxCell>
        <mxCell id="jJ-O4zz6DTN9AIX43a0n-1" value="&lt;p style=&quot;margin:0px;margin-top:4px;text-align:center;&quot;&gt;&lt;i&gt;&amp;lt;&amp;lt;Interface&amp;gt;&amp;gt;&lt;/i&gt;&lt;/p&gt;&lt;p style=&quot;margin:0px;margin-top:4px;text-align:center;&quot;&gt;&lt;b&gt;NetworkInterface&lt;/b&gt;&lt;/p&gt;&lt;p style=&quot;margin:0px;margin-left:4px;&quot;&gt;&lt;br&gt;&lt;/p&gt;&lt;hr size=&quot;1&quot; style=&quot;border-style:solid;&quot;&gt;&amp;nbsp;+ connect(NetworkConfig)&lt;br&gt;&amp;nbsp;+ disconnect()&lt;br&gt;&amp;nbsp;+ sendData(NetworkPacket)&lt;br&gt;&amp;nbsp;+ receiveData(): NetworkPacket" style="verticalAlign=top;align=left;overflow=fill;html=1;whiteSpace=wrap;" parent="1" vertex="1">
          <mxGeometry x="-490" y="1480" width="182.5" height="180" as="geometry" />
        </mxCell>
        <mxCell id="jJ-O4zz6DTN9AIX43a0n-2" value="RemoteCommandManager" style="swimlane;fontStyle=1;align=center;verticalAlign=top;childLayout=stackLayout;horizontal=1;startSize=26;horizontalStack=0;resizeParent=1;resizeParentMax=0;resizeLast=0;collapsible=1;marginBottom=0;whiteSpace=wrap;html=1;" parent="1" vertex="1">
          <mxGeometry x="-910" y="1160" width="240" height="112" as="geometry" />
        </mxCell>
        <mxCell id="jJ-O4zz6DTN9AIX43a0n-3" value="" style="line;strokeWidth=1;fillColor=none;align=left;verticalAlign=middle;spacingTop=-1;spacingLeft=3;spacingRight=3;rotatable=0;labelPosition=right;points=[];portConstraint=eastwest;strokeColor=inherit;" parent="jJ-O4zz6DTN9AIX43a0n-2" vertex="1">
          <mxGeometry y="26" width="240" height="8" as="geometry" />
        </mxCell>
        <mxCell id="jJ-O4zz6DTN9AIX43a0n-4" value="- receiveCommand(): string" style="text;strokeColor=none;fillColor=none;align=left;verticalAlign=top;spacingLeft=4;spacingRight=4;overflow=hidden;rotatable=0;points=[[0,0.5],[1,0.5]];portConstraint=eastwest;whiteSpace=wrap;html=1;" parent="jJ-O4zz6DTN9AIX43a0n-2" vertex="1">
          <mxGeometry y="34" width="240" height="26" as="geometry" />
        </mxCell>
        <mxCell id="jJ-O4zz6DTN9AIX43a0n-5" value="- interpretCommand(cmd: string)" style="text;strokeColor=none;fillColor=none;align=left;verticalAlign=top;spacingLeft=4;spacingRight=4;overflow=hidden;rotatable=0;points=[[0,0.5],[1,0.5]];portConstraint=eastwest;whiteSpace=wrap;html=1;" parent="jJ-O4zz6DTN9AIX43a0n-2" vertex="1">
          <mxGeometry y="60" width="240" height="26" as="geometry" />
        </mxCell>
        <mxCell id="jJ-O4zz6DTN9AIX43a0n-6" value="- forwardToDispatcher(cmd: string)" style="text;strokeColor=none;fillColor=none;align=left;verticalAlign=top;spacingLeft=4;spacingRight=4;overflow=hidden;rotatable=0;points=[[0,0.5],[1,0.5]];portConstraint=eastwest;whiteSpace=wrap;html=1;" parent="jJ-O4zz6DTN9AIX43a0n-2" vertex="1">
          <mxGeometry y="86" width="240" height="26" as="geometry" />
        </mxCell>
        <mxCell id="jJ-O4zz6DTN9AIX43a0n-7" value="" style="endArrow=open;endFill=1;endSize=12;html=1;rounded=0;exitX=0.5;exitY=1;exitDx=0;exitDy=0;entryX=0;entryY=0;entryDx=0;entryDy=0;edgeStyle=orthogonalEdgeStyle;" parent="1" source="jJ-O4zz6DTN9AIX43a0n-2" target="jJ-O4zz6DTN9AIX43a0n-1" edge="1">
          <mxGeometry width="160" relative="1" as="geometry">
            <mxPoint x="62" y="1360" as="sourcePoint" />
            <mxPoint x="-400" y="1511" as="targetPoint" />
          </mxGeometry>
        </mxCell>
        <mxCell id="jJ-O4zz6DTN9AIX43a0n-8" value="" style="endArrow=open;endFill=1;endSize=12;html=1;rounded=0;exitX=0.5;exitY=0;exitDx=0;exitDy=0;entryX=0;entryY=0.25;entryDx=0;entryDy=0;edgeStyle=orthogonalEdgeStyle;" parent="1" source="jJ-O4zz6DTN9AIX43a0n-2" target="Zm7JUVDHdO5eOqaYXh6i-100" edge="1">
          <mxGeometry width="160" relative="1" as="geometry">
            <mxPoint x="-238" y="1080" as="sourcePoint" />
            <mxPoint x="-130" y="550" as="targetPoint" />
          </mxGeometry>
        </mxCell>
        <mxCell id="jJ-O4zz6DTN9AIX43a0n-13" value="IoTDevice" style="swimlane;fontStyle=0;childLayout=stackLayout;horizontal=1;startSize=26;fillColor=none;horizontalStack=0;resizeParent=1;resizeParentMax=0;resizeLast=0;collapsible=1;marginBottom=0;whiteSpace=wrap;html=1;" parent="1" vertex="1">
          <mxGeometry x="-265" y="920" width="140" height="110" as="geometry" />
        </mxCell>
        <mxCell id="jJ-O4zz6DTN9AIX43a0n-15" value="+ ipAddress: string" style="text;strokeColor=none;fillColor=none;align=left;verticalAlign=top;spacingLeft=4;spacingRight=4;overflow=hidden;rotatable=0;points=[[0,0.5],[1,0.5]];portConstraint=eastwest;whiteSpace=wrap;html=1;" parent="jJ-O4zz6DTN9AIX43a0n-13" vertex="1">
          <mxGeometry y="26" width="140" height="32" as="geometry" />
        </mxCell>
        <mxCell id="jJ-O4zz6DTN9AIX43a0n-14" value="+ id: string" style="text;strokeColor=none;fillColor=none;align=left;verticalAlign=top;spacingLeft=4;spacingRight=4;overflow=hidden;rotatable=0;points=[[0,0.5],[1,0.5]];portConstraint=eastwest;whiteSpace=wrap;html=1;" parent="jJ-O4zz6DTN9AIX43a0n-13" vertex="1">
          <mxGeometry y="58" width="140" height="26" as="geometry" />
        </mxCell>
        <mxCell id="jJ-O4zz6DTN9AIX43a0n-16" value="+ nome: string" style="text;strokeColor=none;fillColor=none;align=left;verticalAlign=top;spacingLeft=4;spacingRight=4;overflow=hidden;rotatable=0;points=[[0,0.5],[1,0.5]];portConstraint=eastwest;whiteSpace=wrap;html=1;" parent="jJ-O4zz6DTN9AIX43a0n-13" vertex="1">
          <mxGeometry y="84" width="140" height="26" as="geometry" />
        </mxCell>
        <mxCell id="jJ-O4zz6DTN9AIX43a0n-23" value="IoTIntegrationService" style="swimlane;fontStyle=1;align=center;verticalAlign=top;childLayout=stackLayout;horizontal=1;startSize=26;horizontalStack=0;resizeParent=1;resizeParentMax=0;resizeLast=0;collapsible=1;marginBottom=0;whiteSpace=wrap;html=1;" parent="1" vertex="1">
          <mxGeometry x="-300" y="1190" width="210" height="138" as="geometry" />
        </mxCell>
        <mxCell id="jJ-O4zz6DTN9AIX43a0n-24" value="" style="line;strokeWidth=1;fillColor=none;align=left;verticalAlign=middle;spacingTop=-1;spacingLeft=3;spacingRight=3;rotatable=0;labelPosition=right;points=[];portConstraint=eastwest;strokeColor=inherit;" parent="jJ-O4zz6DTN9AIX43a0n-23" vertex="1">
          <mxGeometry y="26" width="210" height="8" as="geometry" />
        </mxCell>
        <mxCell id="jJ-O4zz6DTN9AIX43a0n-25" value="+ discoverDevices()" style="text;strokeColor=none;fillColor=none;align=left;verticalAlign=top;spacingLeft=4;spacingRight=4;overflow=hidden;rotatable=0;points=[[0,0.5],[1,0.5]];portConstraint=eastwest;whiteSpace=wrap;html=1;" parent="jJ-O4zz6DTN9AIX43a0n-23" vertex="1">
          <mxGeometry y="34" width="210" height="26" as="geometry" />
        </mxCell>
        <mxCell id="jJ-O4zz6DTN9AIX43a0n-26" value="+ associateDevice(IoTDevice)" style="text;strokeColor=none;fillColor=none;align=left;verticalAlign=top;spacingLeft=4;spacingRight=4;overflow=hidden;rotatable=0;points=[[0,0.5],[1,0.5]];portConstraint=eastwest;whiteSpace=wrap;html=1;" parent="jJ-O4zz6DTN9AIX43a0n-23" vertex="1">
          <mxGeometry y="60" width="210" height="26" as="geometry" />
        </mxCell>
        <mxCell id="jJ-O4zz6DTN9AIX43a0n-27" value="- receiveData(IoTDevice): string" style="text;strokeColor=none;fillColor=none;align=left;verticalAlign=top;spacingLeft=4;spacingRight=4;overflow=hidden;rotatable=0;points=[[0,0.5],[1,0.5]];portConstraint=eastwest;whiteSpace=wrap;html=1;" parent="jJ-O4zz6DTN9AIX43a0n-23" vertex="1">
          <mxGeometry y="86" width="210" height="26" as="geometry" />
        </mxCell>
        <mxCell id="jJ-O4zz6DTN9AIX43a0n-28" value="- processIoTData(iotData: string)" style="text;strokeColor=none;fillColor=none;align=left;verticalAlign=top;spacingLeft=4;spacingRight=4;overflow=hidden;rotatable=0;points=[[0,0.5],[1,0.5]];portConstraint=eastwest;whiteSpace=wrap;html=1;" parent="jJ-O4zz6DTN9AIX43a0n-23" vertex="1">
          <mxGeometry y="112" width="210" height="26" as="geometry" />
        </mxCell>
        <mxCell id="jJ-O4zz6DTN9AIX43a0n-29" value="" style="endArrow=diamondThin;endFill=0;endSize=24;html=1;rounded=0;exitX=0.5;exitY=1;exitDx=0;exitDy=0;entryX=0.5;entryY=0;entryDx=0;entryDy=0;" parent="1" source="jJ-O4zz6DTN9AIX43a0n-13" target="jJ-O4zz6DTN9AIX43a0n-23" edge="1">
          <mxGeometry width="160" relative="1" as="geometry">
            <mxPoint x="-210" y="875" as="sourcePoint" />
            <mxPoint x="30" y="935" as="targetPoint" />
          </mxGeometry>
        </mxCell>
        <mxCell id="jJ-O4zz6DTN9AIX43a0n-30" value="&lt;font style=&quot;font-size: 16px;&quot;&gt;*&lt;/font&gt;" style="edgeLabel;html=1;align=center;verticalAlign=middle;resizable=0;points=[];" parent="jJ-O4zz6DTN9AIX43a0n-29" vertex="1" connectable="0">
          <mxGeometry x="-0.7391" y="1" relative="1" as="geometry">
            <mxPoint x="14" y="5" as="offset" />
          </mxGeometry>
        </mxCell>
        <mxCell id="jJ-O4zz6DTN9AIX43a0n-31" value="" style="endArrow=open;endFill=1;endSize=12;html=1;rounded=0;exitX=0.443;exitY=1.038;exitDx=0;exitDy=0;exitPerimeter=0;entryX=0.75;entryY=0;entryDx=0;entryDy=0;edgeStyle=orthogonalEdgeStyle;" parent="1" source="jJ-O4zz6DTN9AIX43a0n-28" target="jJ-O4zz6DTN9AIX43a0n-1" edge="1">
          <mxGeometry width="160" relative="1" as="geometry">
            <mxPoint x="-250" y="1270" as="sourcePoint" />
            <mxPoint x="-202" y="1747" as="targetPoint" />
          </mxGeometry>
        </mxCell>
        <mxCell id="jJ-O4zz6DTN9AIX43a0n-32" value="" style="endArrow=open;endFill=1;endSize=12;html=1;rounded=0;exitX=1.005;exitY=0.109;exitDx=0;exitDy=0;entryX=-0.009;entryY=0.051;entryDx=0;entryDy=0;edgeStyle=orthogonalEdgeStyle;entryPerimeter=0;exitPerimeter=0;" parent="1" source="jJ-O4zz6DTN9AIX43a0n-23" target="Zm7JUVDHdO5eOqaYXh6i-66" edge="1">
          <mxGeometry width="160" relative="1" as="geometry">
            <mxPoint x="-190" y="1350" as="sourcePoint" />
            <mxPoint x="-186" y="1589" as="targetPoint" />
          </mxGeometry>
        </mxCell>
        <mxCell id="jJ-O4zz6DTN9AIX43a0n-34" value="AuthenticationService" style="swimlane;fontStyle=1;align=center;verticalAlign=top;childLayout=stackLayout;horizontal=1;startSize=26;horizontalStack=0;resizeParent=1;resizeParentMax=0;resizeLast=0;collapsible=1;marginBottom=0;whiteSpace=wrap;html=1;" parent="1" vertex="1">
          <mxGeometry x="-560" y="1170" width="210" height="138" as="geometry" />
        </mxCell>
        <mxCell id="jJ-O4zz6DTN9AIX43a0n-35" value="" style="line;strokeWidth=1;fillColor=none;align=left;verticalAlign=middle;spacingTop=-1;spacingLeft=3;spacingRight=3;rotatable=0;labelPosition=right;points=[];portConstraint=eastwest;strokeColor=inherit;" parent="jJ-O4zz6DTN9AIX43a0n-34" vertex="1">
          <mxGeometry y="26" width="210" height="8" as="geometry" />
        </mxCell>
        <mxCell id="jJ-O4zz6DTN9AIX43a0n-36" value="+ login(string, string): bool" style="text;strokeColor=none;fillColor=none;align=left;verticalAlign=top;spacingLeft=4;spacingRight=4;overflow=hidden;rotatable=0;points=[[0,0.5],[1,0.5]];portConstraint=eastwest;whiteSpace=wrap;html=1;" parent="jJ-O4zz6DTN9AIX43a0n-34" vertex="1">
          <mxGeometry y="34" width="210" height="26" as="geometry" />
        </mxCell>
        <mxCell id="jJ-O4zz6DTN9AIX43a0n-37" value="+ logout():" style="text;strokeColor=none;fillColor=none;align=left;verticalAlign=top;spacingLeft=4;spacingRight=4;overflow=hidden;rotatable=0;points=[[0,0.5],[1,0.5]];portConstraint=eastwest;whiteSpace=wrap;html=1;" parent="jJ-O4zz6DTN9AIX43a0n-34" vertex="1">
          <mxGeometry y="60" width="210" height="26" as="geometry" />
        </mxCell>
        <mxCell id="jJ-O4zz6DTN9AIX43a0n-38" value="+ verifySession(string): bool" style="text;strokeColor=none;fillColor=none;align=left;verticalAlign=top;spacingLeft=4;spacingRight=4;overflow=hidden;rotatable=0;points=[[0,0.5],[1,0.5]];portConstraint=eastwest;whiteSpace=wrap;html=1;" parent="jJ-O4zz6DTN9AIX43a0n-34" vertex="1">
          <mxGeometry y="86" width="210" height="26" as="geometry" />
        </mxCell>
        <mxCell id="jJ-O4zz6DTN9AIX43a0n-39" value="+ refreshSession(string): Session" style="text;strokeColor=none;fillColor=none;align=left;verticalAlign=top;spacingLeft=4;spacingRight=4;overflow=hidden;rotatable=0;points=[[0,0.5],[1,0.5]];portConstraint=eastwest;whiteSpace=wrap;html=1;" parent="jJ-O4zz6DTN9AIX43a0n-34" vertex="1">
          <mxGeometry y="112" width="210" height="26" as="geometry" />
        </mxCell>
        <mxCell id="jJ-O4zz6DTN9AIX43a0n-46" value="Session" style="swimlane;fontStyle=1;align=center;verticalAlign=top;childLayout=stackLayout;horizontal=1;startSize=26;horizontalStack=0;resizeParent=1;resizeParentMax=0;resizeLast=0;collapsible=1;marginBottom=0;whiteSpace=wrap;html=1;" parent="1" vertex="1">
          <mxGeometry x="-690" y="850" width="150" height="250" as="geometry" />
        </mxCell>
        <mxCell id="jJ-O4zz6DTN9AIX43a0n-47" value="sessionId: string" style="text;strokeColor=none;fillColor=none;align=left;verticalAlign=top;spacingLeft=4;spacingRight=4;overflow=hidden;rotatable=0;points=[[0,0.5],[1,0.5]];portConstraint=eastwest;whiteSpace=wrap;html=1;" parent="jJ-O4zz6DTN9AIX43a0n-46" vertex="1">
          <mxGeometry y="26" width="150" height="26" as="geometry" />
        </mxCell>
        <mxCell id="jJ-O4zz6DTN9AIX43a0n-48" value="userId: string" style="text;strokeColor=none;fillColor=none;align=left;verticalAlign=top;spacingLeft=4;spacingRight=4;overflow=hidden;rotatable=0;points=[[0,0.5],[1,0.5]];portConstraint=eastwest;whiteSpace=wrap;html=1;" parent="jJ-O4zz6DTN9AIX43a0n-46" vertex="1">
          <mxGeometry y="52" width="150" height="26" as="geometry" />
        </mxCell>
        <mxCell id="jJ-O4zz6DTN9AIX43a0n-61" value="deviceId: string" style="text;strokeColor=none;fillColor=none;align=left;verticalAlign=top;spacingLeft=4;spacingRight=4;overflow=hidden;rotatable=0;points=[[0,0.5],[1,0.5]];portConstraint=eastwest;whiteSpace=wrap;html=1;" parent="jJ-O4zz6DTN9AIX43a0n-46" vertex="1">
          <mxGeometry y="78" width="150" height="26" as="geometry" />
        </mxCell>
        <mxCell id="jJ-O4zz6DTN9AIX43a0n-60" value="createdAt: DateTime" style="text;strokeColor=none;fillColor=none;align=left;verticalAlign=top;spacingLeft=4;spacingRight=4;overflow=hidden;rotatable=0;points=[[0,0.5],[1,0.5]];portConstraint=eastwest;whiteSpace=wrap;html=1;" parent="jJ-O4zz6DTN9AIX43a0n-46" vertex="1">
          <mxGeometry y="104" width="150" height="26" as="geometry" />
        </mxCell>
        <mxCell id="jJ-O4zz6DTN9AIX43a0n-59" value="expiresAt: DateTime" style="text;strokeColor=none;fillColor=none;align=left;verticalAlign=top;spacingLeft=4;spacingRight=4;overflow=hidden;rotatable=0;points=[[0,0.5],[1,0.5]];portConstraint=eastwest;whiteSpace=wrap;html=1;" parent="jJ-O4zz6DTN9AIX43a0n-46" vertex="1">
          <mxGeometry y="130" width="150" height="26" as="geometry" />
        </mxCell>
        <mxCell id="jJ-O4zz6DTN9AIX43a0n-58" value="isActive: bool" style="text;strokeColor=none;fillColor=none;align=left;verticalAlign=top;spacingLeft=4;spacingRight=4;overflow=hidden;rotatable=0;points=[[0,0.5],[1,0.5]];portConstraint=eastwest;whiteSpace=wrap;html=1;" parent="jJ-O4zz6DTN9AIX43a0n-46" vertex="1">
          <mxGeometry y="156" width="150" height="26" as="geometry" />
        </mxCell>
        <mxCell id="jJ-O4zz6DTN9AIX43a0n-49" value="" style="line;strokeWidth=1;fillColor=none;align=left;verticalAlign=middle;spacingTop=-1;spacingLeft=3;spacingRight=3;rotatable=0;labelPosition=right;points=[];portConstraint=eastwest;strokeColor=inherit;" parent="jJ-O4zz6DTN9AIX43a0n-46" vertex="1">
          <mxGeometry y="182" width="150" height="8" as="geometry" />
        </mxCell>
        <mxCell id="jJ-O4zz6DTN9AIX43a0n-55" value="+ isValid(): bool" style="text;strokeColor=none;fillColor=none;align=left;verticalAlign=top;spacingLeft=4;spacingRight=4;overflow=hidden;rotatable=0;points=[[0,0.5],[1,0.5]];portConstraint=eastwest;whiteSpace=wrap;html=1;" parent="jJ-O4zz6DTN9AIX43a0n-46" vertex="1">
          <mxGeometry y="190" width="150" height="30" as="geometry" />
        </mxCell>
        <mxCell id="jJ-O4zz6DTN9AIX43a0n-56" value="+ invalidate(): void" style="text;strokeColor=none;fillColor=none;align=left;verticalAlign=top;spacingLeft=4;spacingRight=4;overflow=hidden;rotatable=0;points=[[0,0.5],[1,0.5]];portConstraint=eastwest;whiteSpace=wrap;html=1;" parent="jJ-O4zz6DTN9AIX43a0n-46" vertex="1">
          <mxGeometry y="220" width="150" height="30" as="geometry" />
        </mxCell>
        <mxCell id="jJ-O4zz6DTN9AIX43a0n-62" value="" style="endArrow=diamondThin;endFill=1;endSize=24;html=1;rounded=0;entryX=0.414;entryY=0.007;entryDx=0;entryDy=0;exitX=0.5;exitY=1;exitDx=0;exitDy=0;entryPerimeter=0;" parent="1" source="jJ-O4zz6DTN9AIX43a0n-46" target="jJ-O4zz6DTN9AIX43a0n-34" edge="1">
          <mxGeometry width="160" relative="1" as="geometry">
            <mxPoint x="-627" y="1324" as="sourcePoint" />
            <mxPoint x="-467" y="1324" as="targetPoint" />
          </mxGeometry>
        </mxCell>
        <mxCell id="jJ-O4zz6DTN9AIX43a0n-63" value="N" style="edgeLabel;html=1;align=center;verticalAlign=middle;resizable=0;points=[];" parent="jJ-O4zz6DTN9AIX43a0n-62" vertex="1" connectable="0">
          <mxGeometry x="-0.55" y="-1" relative="1" as="geometry">
            <mxPoint y="-9" as="offset" />
          </mxGeometry>
        </mxCell>
        <mxCell id="jJ-O4zz6DTN9AIX43a0n-66" value="" style="endArrow=open;endFill=1;endSize=12;html=1;rounded=0;edgeStyle=orthogonalEdgeStyle;exitX=0.71;exitY=1.038;exitDx=0;exitDy=0;exitPerimeter=0;" parent="1" target="jJ-O4zz6DTN9AIX43a0n-1" edge="1" source="jJ-O4zz6DTN9AIX43a0n-39">
          <mxGeometry width="160" relative="1" as="geometry">
            <mxPoint x="-440" y="1340" as="sourcePoint" />
            <mxPoint x="-277" y="1707" as="targetPoint" />
          </mxGeometry>
        </mxCell>
        <mxCell id="jJ-O4zz6DTN9AIX43a0n-67" value="" style="endArrow=open;endFill=1;endSize=12;html=1;rounded=0;exitX=1;exitY=0.125;exitDx=0;exitDy=0;entryX=-0.005;entryY=0.101;entryDx=0;entryDy=0;entryPerimeter=0;exitPerimeter=0;edgeStyle=orthogonalEdgeStyle;" parent="1" source="jJ-O4zz6DTN9AIX43a0n-2" target="jJ-O4zz6DTN9AIX43a0n-34" edge="1">
          <mxGeometry width="160" relative="1" as="geometry">
            <mxPoint x="-600" y="1360" as="sourcePoint" />
            <mxPoint x="-320" y="1650" as="targetPoint" />
          </mxGeometry>
        </mxCell>
        <mxCell id="jJ-O4zz6DTN9AIX43a0n-68" value="" style="endArrow=open;endFill=1;endSize=12;html=1;rounded=0;exitX=-0.005;exitY=0.123;exitDx=0;exitDy=0;entryX=1.005;entryY=0.101;entryDx=0;entryDy=0;entryPerimeter=0;exitPerimeter=0;" parent="1" source="jJ-O4zz6DTN9AIX43a0n-23" target="jJ-O4zz6DTN9AIX43a0n-34" edge="1">
          <mxGeometry width="160" relative="1" as="geometry">
            <mxPoint x="-500" y="1130" as="sourcePoint" />
            <mxPoint x="-421" y="1209" as="targetPoint" />
          </mxGeometry>
        </mxCell>
        <mxCell id="pHNLBWnSvzT0YMkxbXFc-1" value="AuthController" style="swimlane;fontStyle=1;align=center;verticalAlign=top;childLayout=stackLayout;horizontal=1;startSize=26;horizontalStack=0;resizeParent=1;resizeParentMax=0;resizeLast=0;collapsible=1;marginBottom=0;whiteSpace=wrap;html=1;" vertex="1" parent="1">
          <mxGeometry x="-545" y="560" width="150" height="120" as="geometry" />
        </mxCell>
        <mxCell id="pHNLBWnSvzT0YMkxbXFc-2" value="..." style="text;strokeColor=none;fillColor=none;align=left;verticalAlign=top;spacingLeft=4;spacingRight=4;overflow=hidden;rotatable=0;points=[[0,0.5],[1,0.5]];portConstraint=eastwest;whiteSpace=wrap;html=1;" vertex="1" parent="pHNLBWnSvzT0YMkxbXFc-1">
          <mxGeometry y="26" width="150" height="26" as="geometry" />
        </mxCell>
        <mxCell id="pHNLBWnSvzT0YMkxbXFc-3" value="" style="line;strokeWidth=1;fillColor=none;align=left;verticalAlign=middle;spacingTop=-1;spacingLeft=3;spacingRight=3;rotatable=0;labelPosition=right;points=[];portConstraint=eastwest;strokeColor=inherit;" vertex="1" parent="pHNLBWnSvzT0YMkxbXFc-1">
          <mxGeometry y="52" width="150" height="8" as="geometry" />
        </mxCell>
        <mxCell id="pHNLBWnSvzT0YMkxbXFc-4" value="+ onLogin(string, string)" style="text;strokeColor=none;fillColor=none;align=left;verticalAlign=top;spacingLeft=4;spacingRight=4;overflow=hidden;rotatable=0;points=[[0,0.5],[1,0.5]];portConstraint=eastwest;whiteSpace=wrap;html=1;" vertex="1" parent="pHNLBWnSvzT0YMkxbXFc-1">
          <mxGeometry y="60" width="150" height="30" as="geometry" />
        </mxCell>
        <mxCell id="pHNLBWnSvzT0YMkxbXFc-5" value="+ onLogout()" style="text;strokeColor=none;fillColor=none;align=left;verticalAlign=top;spacingLeft=4;spacingRight=4;overflow=hidden;rotatable=0;points=[[0,0.5],[1,0.5]];portConstraint=eastwest;whiteSpace=wrap;html=1;" vertex="1" parent="pHNLBWnSvzT0YMkxbXFc-1">
          <mxGeometry y="90" width="150" height="30" as="geometry" />
        </mxCell>
        <mxCell id="pHNLBWnSvzT0YMkxbXFc-8" value="LoginForm" style="swimlane;fontStyle=1;align=center;verticalAlign=top;childLayout=stackLayout;horizontal=1;startSize=26;horizontalStack=0;resizeParent=1;resizeParentMax=0;resizeLast=0;collapsible=1;marginBottom=0;whiteSpace=wrap;html=1;" vertex="1" parent="1">
          <mxGeometry x="-545" y="330" width="140" height="154" as="geometry" />
        </mxCell>
        <mxCell id="pHNLBWnSvzT0YMkxbXFc-9" value="- password: string" style="text;strokeColor=none;fillColor=none;align=left;verticalAlign=top;spacingLeft=4;spacingRight=4;overflow=hidden;rotatable=0;points=[[0,0.5],[1,0.5]];portConstraint=eastwest;whiteSpace=wrap;html=1;" vertex="1" parent="pHNLBWnSvzT0YMkxbXFc-8">
          <mxGeometry y="26" width="140" height="30" as="geometry" />
        </mxCell>
        <mxCell id="pHNLBWnSvzT0YMkxbXFc-10" value="- username: string" style="text;strokeColor=none;fillColor=none;align=left;verticalAlign=top;spacingLeft=4;spacingRight=4;overflow=hidden;rotatable=0;points=[[0,0.5],[1,0.5]];portConstraint=eastwest;whiteSpace=wrap;html=1;" vertex="1" parent="pHNLBWnSvzT0YMkxbXFc-8">
          <mxGeometry y="56" width="140" height="30" as="geometry" />
        </mxCell>
        <mxCell id="pHNLBWnSvzT0YMkxbXFc-11" value="" style="line;strokeWidth=1;fillColor=none;align=left;verticalAlign=middle;spacingTop=-1;spacingLeft=3;spacingRight=3;rotatable=0;labelPosition=right;points=[];portConstraint=eastwest;strokeColor=inherit;" vertex="1" parent="pHNLBWnSvzT0YMkxbXFc-8">
          <mxGeometry y="86" width="140" height="8" as="geometry" />
        </mxCell>
        <mxCell id="pHNLBWnSvzT0YMkxbXFc-12" value="- submitLogin()" style="text;strokeColor=none;fillColor=none;align=left;verticalAlign=top;spacingLeft=4;spacingRight=4;overflow=hidden;rotatable=0;points=[[0,0.5],[1,0.5]];portConstraint=eastwest;whiteSpace=wrap;html=1;" vertex="1" parent="pHNLBWnSvzT0YMkxbXFc-8">
          <mxGeometry y="94" width="140" height="30" as="geometry" />
        </mxCell>
        <mxCell id="pHNLBWnSvzT0YMkxbXFc-13" value="- submitLogout()" style="text;strokeColor=none;fillColor=none;align=left;verticalAlign=top;spacingLeft=4;spacingRight=4;overflow=hidden;rotatable=0;points=[[0,0.5],[1,0.5]];portConstraint=eastwest;whiteSpace=wrap;html=1;" vertex="1" parent="pHNLBWnSvzT0YMkxbXFc-8">
          <mxGeometry y="124" width="140" height="30" as="geometry" />
        </mxCell>
        <mxCell id="pHNLBWnSvzT0YMkxbXFc-14" value="" style="endArrow=open;endFill=1;endSize=12;html=1;rounded=0;exitX=0.529;exitY=1.067;exitDx=0;exitDy=0;exitPerimeter=0;" edge="1" parent="1" source="pHNLBWnSvzT0YMkxbXFc-13" target="pHNLBWnSvzT0YMkxbXFc-1">
          <mxGeometry width="160" relative="1" as="geometry">
            <mxPoint x="-34" y="430" as="sourcePoint" />
            <mxPoint x="-85" y="731" as="targetPoint" />
          </mxGeometry>
        </mxCell>
        <mxCell id="pHNLBWnSvzT0YMkxbXFc-15" value="" style="endArrow=open;endFill=1;endSize=12;html=1;rounded=0;exitX=0;exitY=0.5;exitDx=0;exitDy=0;entryX=0.5;entryY=0;entryDx=0;entryDy=0;edgeStyle=orthogonalEdgeStyle;" edge="1" parent="1" source="Zm7JUVDHdO5eOqaYXh6i-100" target="pHNLBWnSvzT0YMkxbXFc-8">
          <mxGeometry width="160" relative="1" as="geometry">
            <mxPoint x="-190" y="510" as="sourcePoint" />
            <mxPoint x="-189" y="584" as="targetPoint" />
          </mxGeometry>
        </mxCell>
        <mxCell id="pHNLBWnSvzT0YMkxbXFc-16" value="" style="endArrow=open;endFill=1;endSize=12;html=1;rounded=0;entryX=0.5;entryY=0;entryDx=0;entryDy=0;exitX=0.5;exitY=1;exitDx=0;exitDy=0;" edge="1" parent="1" source="pHNLBWnSvzT0YMkxbXFc-1" target="jJ-O4zz6DTN9AIX43a0n-34">
          <mxGeometry width="160" relative="1" as="geometry">
            <mxPoint x="141" y="800" as="sourcePoint" />
            <mxPoint x="100" y="1029" as="targetPoint" />
          </mxGeometry>
        </mxCell>
      </root>
    </mxGraphModel>
  </diagram>
</mxfile>
